<svg height="10" viewBox="0 0 25.099 14.822" width="15" xmlns="http://www.w3.org/2000/svg"><g fill="#b1b3b6" stroke="#b1b3b6" stroke-width=".5"><path d="m24.461 113.533c-.193-.281-4.84-6.871-12.185-6.871-6.3 0-11.919 6.551-12.155 6.831a.513.513 0 0 0 0 .661c.236.279 5.853 6.831 12.155 6.831s11.919-6.551 12.155-6.831a.512.512 0 0 0 .03-.621zm-12.185 6.429c-5.053 0-9.857-4.818-11.077-6.138 1.218-1.321 6.017-6.138 11.077-6.138 5.912 0 10.085 4.811 11.1 6.11-1.176 1.277-6.004 6.165-11.1 6.165z" transform="translate(.278 -106.412)"/><path d="m174.754 170.662a4.092 4.092 0 1 0 4.092 4.092 4.1 4.1 0 0 0 -4.092-4.092zm0 7.161a3.069 3.069 0 1 1 3.069-3.069 3.073 3.073 0 0 1 -3.069 3.069z" transform="translate(-162.2 -167.343)"/></g></svg>