<svg height="18.89" viewBox="0 0 25.041 18.89" width="25.041" xmlns="http://www.w3.org/2000/svg"><g fill="#3b86c9" stroke="#3b86c9" stroke-width=".4"><path d="m198.5 192.692a.512.512 0 0 0 -.725.725 3.074 3.074 0 1 1 -4.347 4.347.512.512 0 1 0 -.725.725 4.1 4.1 0 1 0 5.8-5.8z" transform="translate(-183.081 -186.124)"/><path d="m175.482 170.73a4.058 4.058 0 0 0 -4.814 4.029 4.011 4.011 0 0 0 .072.714.513.513 0 0 0 .5.423.455.455 0 0 0 .09-.008.513.513 0 0 0 .415-.593 2.971 2.971 0 0 1 -.055-.536 3.038 3.038 0 0 1 3.61-3.02.512.512 0 1 0 .178-1.008z" transform="translate(-162.25 -165.293)"/><path d="m151.5 141.872a24.892 24.892 0 0 0 -6.712-5.354.513.513 0 1 0 -.47.911 24.082 24.082 0 0 1 6.1 4.774c-1.222 1.323-6.029 6.149-11.1 6.149a11.815 11.815 0 0 1 -5.153-1.235.512.512 0 1 0 -.445.922 12.815 12.815 0 0 0 5.6 1.337c6.314 0 11.94-6.563 12.177-6.843a.512.512 0 0 0 .003-.661z" transform="translate(-126.806 -132.737)"/><path d="m15.66 107.249a10.581 10.581 0 0 0 -3.362-.59c-6.314 0-11.94 6.563-12.177 6.843a.512.512 0 0 0 -.029.624 19.024 19.024 0 0 0 4.7 4.457.509.509 0 0 0 .709-.145.511.511 0 0 0 -.143-.709 18.74 18.74 0 0 1 -4.184-3.869c1.18-1.281 6.019-6.177 11.124-6.177a9.592 9.592 0 0 1 3.036.536.505.505 0 0 0 .649-.322.511.511 0 0 0 -.323-.648z" transform="translate(.219 -104.367)"/><path d="m82.293 64.158a.513.513 0 0 0 -.725 0l-17.422 17.422a.512.512 0 0 0 .725.725l17.422-17.423a.513.513 0 0 0 0-.724z" transform="translate(-60.703 -63.765)"/></g></svg>